<mxfile host="app.diagrams.net" agent="Mozilla/5.0 (Macintosh; Intel Mac OS X 10_15_7) AppleWebKit/537.36 (KHTML, like Gecko) Chrome/131.0.0.0 Safari/537.36" version="25.0.3">
  <diagram name="Page-1" id="yqccAsVAatdTNifU0Gkn">
    <mxGraphModel dx="1642" dy="785" grid="0" gridSize="10" guides="1" tooltips="1" connect="1" arrows="1" fold="1" page="0" pageScale="1" pageWidth="850" pageHeight="1100" math="0" shadow="0">
      <root>
        <mxCell id="0" />
        <mxCell id="1" parent="0" />
        <mxCell id="fJcUvBRbg0LIX3s7COAB-4" style="rounded=0;orthogonalLoop=1;jettySize=auto;html=1;entryX=0;entryY=0.5;entryDx=0;entryDy=0;startArrow=classic;startFill=1;" edge="1" parent="1" source="fJcUvBRbg0LIX3s7COAB-2" target="fJcUvBRbg0LIX3s7COAB-3">
          <mxGeometry relative="1" as="geometry" />
        </mxCell>
        <mxCell id="fJcUvBRbg0LIX3s7COAB-5" value="&lt;div&gt;API-REST&lt;/div&gt;" style="edgeLabel;html=1;align=center;verticalAlign=middle;resizable=0;points=[];" vertex="1" connectable="0" parent="fJcUvBRbg0LIX3s7COAB-4">
          <mxGeometry x="0.15" y="-3" relative="1" as="geometry">
            <mxPoint x="-5" y="-13" as="offset" />
          </mxGeometry>
        </mxCell>
        <mxCell id="fJcUvBRbg0LIX3s7COAB-2" value="Front-end" style="whiteSpace=wrap;html=1;aspect=fixed;fillColor=#999999;" vertex="1" parent="1">
          <mxGeometry x="-50" y="150" width="420" height="420" as="geometry" />
        </mxCell>
        <mxCell id="fJcUvBRbg0LIX3s7COAB-3" value="Back-end" style="whiteSpace=wrap;html=1;aspect=fixed;fillColor=#333333;" vertex="1" parent="1">
          <mxGeometry x="570" y="150" width="420" height="420" as="geometry" />
        </mxCell>
      </root>
    </mxGraphModel>
  </diagram>
</mxfile>
